# xmcd
#
# Track frame offsets: 
#        150
#        29052
#        45460
#        73217
#        87417
#        114120
#        142652
#        162197
#        179625
#        182432
#
# Disc length: 2812 seconds
#
# Revision: 2
# Processed by: cddbd v1.5.2PL0 Copyright (c) Steve Scherf et al.
# Submitted via: ExactAudioCopy v0.95b4
#
DISCID=810afa0a
DTITLE=Appendix Out - The Rye Bears A Poison
DYEAR=1900
DGENRE=
TTITLE0=Our Sea
TTITLE1=Brazil
TTITLE2=East Coast Wedding
TTITLE3=Many-Legged Boatmen
TTITLE4=Frozen Blight
TTITLE5=Wild I Lived In Flanders
TTITLE6=Seagulls, Bells
TTITLE7=Lassie, Lie Near Me
TTITLE8=The Harp Key
TTITLE9=Autumn
EXTD=
EXTT0=
EXTT1=
EXTT2=
EXTT3=
EXTT4=
EXTT5=
EXTT6=
EXTT7=
EXTT8=
EXTT9=
PLAYORDER=
